<svg width="274" height="41" viewBox="0 0 274 41" fill="none" xmlns="http://www.w3.org/2000/svg">
<path id="arrow" d="M26.8858 29.4305C46.2088 31.3498 64.2083 33.0559 82.2078 34.9753C83.5313 35.1885 84.5901 36.4681 87.5018 38.3875C79.0315 39.2406 72.414 40.3069 65.7965 40.5201C48.3264 40.9467 31.121 40.9467 13.6509 40.9467C11.5333 40.9467 9.41572 41.1599 7.29813 40.7334C0.415961 39.6671 -1.96634 36.0416 1.73944 31.1365C3.59233 28.7906 5.70992 26.658 8.09221 24.7386C17.092 17.4877 26.3564 10.4499 35.6209 3.41224C37.2091 2.13265 39.5913 1.49285 42.7677 0C43.2971 10.8765 29.7975 13.8622 26.8858 22.3927C29.2681 21.9662 31.3857 21.7529 33.2386 21.3264C104.707 5.54486 175.911 7.25099 246.85 22.606C254.262 24.0988 261.409 26.4447 268.556 28.5773C272.262 29.6437 275.438 31.9896 273.32 35.6151C271.467 39.2406 267.762 39.2406 263.526 37.7477C216.145 20.6866 165.853 18.7672 115.03 19.407C88.5606 19.6203 62.6201 21.9662 36.9444 26.8713C33.768 27.5111 30.5916 28.3641 26.8858 29.4305Z" fill="white"/>
</svg>
