<svg width="858" height="693" viewBox="0 0 858 693" fill="none" xmlns="http://www.w3.org/2000/svg">
<g id="No Message">
<path id="Fill 1" fill-rule="evenodd" clip-rule="evenodd" d="M747 625.5C747 652.839 639.547 675 507 675C374.451 675 267 652.839 267 625.5C267 598.161 374.451 576 507 576C639.547 576 747 598.161 747 625.5Z" fill="#F2F3FB"/>
<path id="Fill 3" fill-rule="evenodd" clip-rule="evenodd" d="M682.317 372H366V279.568C366 239.49 398.38 207 438.328 207H617.669C657.617 207 690 239.49 690 279.568V364.294C690 368.55 686.561 372 682.317 372" fill="#BEC0D5"/>
<path id="Fill 5" fill-rule="evenodd" clip-rule="evenodd" d="M681 357H357V278.679C357 239.091 389.38 207 429.328 207H608.669C648.617 207 681 239.091 681 278.679V357Z" fill="#D8DBE8"/>
<path id="Fill 7" fill-rule="evenodd" clip-rule="evenodd" d="M429 216V216C394.207 216 366 243.899 366 278.317V357H492V278.317C492 243.899 463.795 216 429 216" fill="#FEFEFE"/>
<path id="Fill 9" fill-rule="evenodd" clip-rule="evenodd" d="M357 276V279C357 277.995 357.042 276.999 357.078 276H357Z" fill="#E7EAF0"/>
<path id="Fill 11" fill-rule="evenodd" clip-rule="evenodd" d="M672.081 276H672C672.036 276.999 672.081 277.995 672.081 279V276Z" fill="#E7EAF0"/>
<path id="Fill 13" fill-rule="evenodd" clip-rule="evenodd" d="M606.649 207H429.567C429.376 207 429.189 207.012 429 207.015C466.45 207.321 496.718 237.832 496.718 275.441V276H678C676.643 237.664 645.228 207 606.649 207" fill="#E7EAF0"/>
<path id="Fill 15" fill-rule="evenodd" clip-rule="evenodd" d="M678 369H321.512C317.913 369 315 366.313 315 362.999C315 359.684 317.913 357 321.512 357H678V369Z" fill="#D8DBE8"/>
<mask id="mask0_1_327" style="mask-type:alpha" maskUnits="userSpaceOnUse" x="0" y="0" width="858" height="693">
<path id="Clip 18" fill-rule="evenodd" clip-rule="evenodd" d="M0 693H858V0H0V693Z" fill="white"/>
</mask>
<g mask="url(#mask0_1_327)">
<path id="Fill 17" fill-rule="evenodd" clip-rule="evenodd" d="M498 627H525V369H498V627Z" fill="#F0F1F5"/>
<path id="Fill 19" fill-rule="evenodd" clip-rule="evenodd" d="M507 627H525V369H507V627Z" fill="#BEC0D5"/>
<path id="Fill 20" fill-rule="evenodd" clip-rule="evenodd" d="M543.175 387H479.822C473.292 387 468 382.073 468 375.991V369H555V375.991C555 382.073 549.705 387 543.175 387" fill="#BEC0D5"/>
<path id="Fill 21" fill-rule="evenodd" clip-rule="evenodd" d="M468 375H555V369H468V375Z" fill="#F0F1F5"/>
<path id="Fill 22" fill-rule="evenodd" clip-rule="evenodd" d="M511.5 609C487.476 609 468 619.005 468 631.346C468 643.686 487.476 645 511.5 645C535.524 645 555 643.686 555 631.346C555 619.005 535.524 609 511.5 609" fill="#BEC0D5"/>
<path id="Fill 23" fill-rule="evenodd" clip-rule="evenodd" d="M499.604 637.372C508.373 627.234 506.942 615.463 506.874 609C482.689 609 468 618.516 468 630.355C468 636.771 473.759 640.08 482.886 641.765C482.886 641.765 494.278 643.532 499.604 637.372" fill="#F0F1F5"/>
<path id="Fill 24" fill-rule="evenodd" clip-rule="evenodd" d="M587.743 316.388C586.149 325.358 577.582 331.338 568.612 329.742C559.644 328.148 553.662 319.583 555.258 310.613C556.852 301.643 565.417 295.663 574.389 297.257C583.359 298.853 589.337 307.418 587.743 316.388" fill="#BEC0D5"/>
<path id="Fill 25" fill-rule="evenodd" clip-rule="evenodd" d="M584.507 314.103C582.519 321.287 575.08 325.495 567.898 323.507C560.714 321.517 556.503 314.081 558.493 306.898C560.481 299.714 567.92 295.503 575.104 297.493C582.286 299.484 586.497 306.919 584.507 314.103" fill="url(#paint0_linear_1_327)"/>
<path id="Fill 26" fill-rule="evenodd" clip-rule="evenodd" d="M635.353 229.414L597.743 219.216C594.519 218.34 591.148 220.209 590.253 223.366L585.09 241.618L582.667 250.187L564 316.162L570.774 318L589.438 252.022L626.14 261.973C635.288 264.454 644.841 259.157 647.375 250.203C649.91 241.247 644.499 231.893 635.353 229.414" fill="url(#paint1_linear_1_327)"/>
<path id="Stroke 27" d="M225 70.833C221.986 70.128 218.983 69.516 216 69" stroke="#9D9D9D"/>
<path id="Stroke 28" d="M195.402 69.1427C99.1141 65.5744 23.9976 129.523 24 191.824C24 254.512 78.2113 329.567 163.668 312.552C249.125 295.536 255.739 240.496 334.582 240.496C382.872 240.496 442.538 271.826 471 288.587" stroke="#D7DAE9" stroke-dasharray="8.08 8.08"/>
<path id="Stroke 29" d="M480 294C485.751 297.72 489 300 489 300" stroke="#9D9D9D"/>
<path id="Stroke 30" d="M861 191.781C861 191.781 856.039 192.741 852.728 190.643C846.887 186.938 849.063 182.045 844.623 179.82C839.106 177.052 836.243 182.75 830.956 180.098C824.743 176.981 828.839 171.902 822.974 168.96C816.834 165.881 812.324 170.817 806.536 167.912C803.522 166.4 803.135 164.924 801.851 162.126C800.464 159.109 800.733 156.486 796.946 154.599C791.962 152.118 788.261 157.376 782.121 154.297C776.256 151.354 780.351 146.276 774.137 143.159C768.85 140.507 765.989 146.205 760.471 143.438C756.033 141.212 758.366 136.084 752.366 132.614C747.465 129.782 743.541 132.358 741.01 131.985C736.581 131.335 735 126 735 126" stroke="url(#paint2_linear_1_327)"/>
<path id="Stroke 31" d="M204 498C204 498 204.352 492.857 207.414 490.203C212.819 485.523 217.279 489.05 220.779 485.325C225.129 480.694 220.023 476.263 224.191 471.826C229.088 466.614 233.222 472.079 237.846 467.154C242.685 462.005 238.814 456.173 243.379 451.316C245.754 448.787 247.382 448.827 250.617 448.36C254.107 447.857 256.742 448.869 259.717 445.688C263.624 441.499 259.202 436.368 264.04 431.217C268.667 426.295 272.799 431.76 277.696 426.547C281.864 422.108 276.76 417.679 281.108 413.049C284.608 409.323 289.269 413.071 294.473 408.168C298.724 404.165 297.127 399.576 298.195 397.197C300.066 393.032 306 393 306 393" stroke="url(#paint3_linear_1_327)"/>
<path id="Fill 32" fill-rule="evenodd" clip-rule="evenodd" d="M225 93C218.137 91.4031 211.5 84 209.775 82.7279L195 82.0971L207.693 73.9775C207.92 68.028 210.658 61.9859 216 57C216.042 63.0597 217.306 69.292 218.777 75.5494C220.248 81.8068 222.364 87.6562 225 93Z" fill="#282526"/>
<path id="Fill 34" fill-rule="evenodd" clip-rule="evenodd" d="M211.719 81L211.152 80.966C210.693 80.0105 210.318 79.0113 210 78C210.42 79.0404 211.014 80.0445 211.719 81" fill="#282526"/>
<path id="Fill 35" fill-rule="evenodd" clip-rule="evenodd" d="M235.5 92.991C232.5 93 228 93 225 92.991C222.352 87.7317 219.718 81.0552 218.242 74.8938C216.768 68.73 216.039 62.9667 216 57C218.277 54.9125 222.018 52.6439 225 51C224.728 58.0683 226.236 66.1433 228 73.5C229.761 80.8567 232.084 86.9208 235.5 92.991Z" fill="#F5D30D"/>
<path id="Fill 36" fill-rule="evenodd" clip-rule="evenodd" d="M246 91.5C242.549 92.2239 238.729 92.9198 235.471 93C231.787 87.017 229.307 80.3174 227.408 73.0664C225.505 65.8154 224.708 57.9668 225 51C227.904 49.5571 231.134 48.9619 234.523 48C234.05 55.3603 234.773 63.051 236.793 70.749C238.81 78.447 243 85.5 246 91.5Z" fill="#282526"/>
<path id="Fill 37" fill-rule="evenodd" clip-rule="evenodd" d="M256.5 87C256.5 87 255 88.5 252 90C249 91.5 247.5 91.5 246 91.5C242.3 85.3541 238.053 76.8766 236.208 69.3041C234.358 61.7316 233.696 54.1663 234.127 46.926C234.633 46.7659 235.144 46.6297 235.679 46.4887C238.81 45.6595 244.511 45.1529 247.5 45C247.048 52.5 247.233 58.7525 249 66C250.767 73.2499 253.034 81.0405 256.5 87Z" fill="#F5D30D"/>
<path id="Fill 38" fill-rule="evenodd" clip-rule="evenodd" d="M264 81C261.667 83.0142 259.509 85.4997 256.5 87C253.104 80.9551 249.895 74.1831 248.162 66.8294C246.427 59.4781 245.766 52.1558 246.072 45.093C249.38 44.8627 252.558 45.0663 255.498 45.6359C255.493 51.7123 256.201 57.9462 257.68 64.219C259.159 70.4893 261.301 75.6629 264 81Z" fill="#282526"/>
<path id="Fill 39" fill-rule="evenodd" clip-rule="evenodd" d="M264 81C261.324 75.6655 258.633 69.8322 257.165 63.5678C255.698 57.3011 254.996 51.073 255 45C263.98 46.6926 270.826 51.8479 272.575 59.3109C274.321 66.7739 271.143 74.8543 264 81Z" fill="#282526"/>
<path id="Fill 40" fill-rule="evenodd" clip-rule="evenodd" d="M251.098 53.8549C243.308 55.3872 234.712 44.6065 231.898 29.7759C229.081 14.9429 233.114 1.67779 240.901 0.145472C248.69 -1.38922 257.287 9.39388 260.103 24.2245C262.918 39.0551 258.887 52.3226 251.098 53.8549" fill="#98B4DD"/>
<path id="Fill 41" fill-rule="evenodd" clip-rule="evenodd" d="M258.522 54.1425C252.859 60.1985 239.303 56.3136 228.246 45.4656C217.188 34.6175 212.815 20.9148 218.478 14.8564C224.143 8.80289 237.697 12.6853 248.756 23.5334C259.813 34.3814 264.185 48.0866 258.522 54.1425" fill="#B9C7E5"/>
<path id="Fill 42" fill-rule="evenodd" clip-rule="evenodd" d="M274.462 51C271.783 47.4817 267.793 44.8117 262.948 43.7155C262.291 43.5648 261.652 43.4443 261 43.3678C265.717 39.6896 272.184 38.0765 278.613 39.532C284.014 40.7558 288.341 43.9078 291 47.9939C285.012 46.6381 279.024 47.9059 274.462 51Z" fill="#1A1E1D"/>
<path id="Fill 43" fill-rule="evenodd" clip-rule="evenodd" d="M293.434 60.7234C291.027 70.1653 281.583 76.1532 271.756 74.8131C271.117 74.7353 270.491 74.6126 269.844 74.4616L269.798 74.4498C259.376 71.9725 253.006 61.8511 255.566 51.8147C256.583 47.8275 258.855 44.4749 261.862 42C262.501 42.0779 263.128 42.2005 263.771 42.3515C268.52 43.4698 272.431 46.1878 275.06 49.7692C279.529 46.6171 285.398 45.3266 291.221 46.6974L291.267 46.7092C293.773 50.7719 294.704 55.7524 293.434 60.7234" fill="#F5D30D"/>
<path id="Fill 44" fill-rule="evenodd" clip-rule="evenodd" d="M278.522 40.2058C279.315 35.5514 285.874 30.3834 290.838 30L291.001 31.8617C286.876 32.1801 281.118 36.8682 280.501 40.5L278.522 40.2058Z" fill="#1A1E1D"/>
<path id="Fill 45" fill-rule="evenodd" clip-rule="evenodd" d="M293.853 33.9217C293.343 35.4975 291.654 36.364 290.078 35.8535C288.503 35.3457 287.636 33.654 288.147 32.0783C288.654 30.5025 290.346 29.636 291.922 30.1465C293.497 30.6543 294.364 32.346 293.853 33.9217" fill="#1A1E1D"/>
<path id="Fill 46" fill-rule="evenodd" clip-rule="evenodd" d="M276 40.5C278.171 36.766 274.849 29.6812 271.242 27L270 28.2582C273.001 30.4879 276 36 274.297 39.7532L276 40.5Z" fill="#1A1E1D"/>
<path id="Fill 47" fill-rule="evenodd" clip-rule="evenodd" d="M267.147 26.0783C266.636 27.654 267.503 29.3457 269.076 29.8535C270.654 30.364 272.346 29.4975 272.853 27.9217C273.364 26.346 272.497 24.6543 270.922 24.1465C269.346 23.636 267.654 24.5025 267.147 26.0783" fill="#1A1E1D"/>
<path id="Fill 48" fill-rule="evenodd" clip-rule="evenodd" d="M269.827 55.4275C269.039 58.6445 265.79 60.614 262.573 59.8267C259.355 59.0371 257.386 55.7917 258.173 52.5725C258.965 49.3555 262.21 47.386 265.427 48.1733C268.645 48.9629 270.614 52.2104 269.827 55.4275" fill="#1A1E1D"/>
<path id="Fill 49" fill-rule="evenodd" clip-rule="evenodd" d="M272.826 55.4285C272.038 58.6444 268.791 60.614 265.573 59.8267C262.354 59.0394 260.384 55.7926 261.174 52.5741C261.962 49.3556 265.209 47.386 268.427 48.1733C271.646 48.9632 273.616 52.2099 272.826 55.4285" fill="#FEFEFE"/>
<path id="Fill 50" fill-rule="evenodd" clip-rule="evenodd" d="M264.087 53.2857C263.692 54.8954 264.676 56.5203 266.289 56.9128C267.895 57.3083 269.517 56.321 269.913 54.7145C270.308 53.1048 269.324 51.4798 267.714 51.0874C266.105 50.6919 264.483 51.6761 264.087 53.2857" fill="#1A1E1D"/>
<path id="Fill 51" fill-rule="evenodd" clip-rule="evenodd" d="M267.042 52.1193C266.85 52.9053 267.333 53.7003 268.119 53.8923C268.905 54.0873 269.7 53.6043 269.892 52.8153C270.087 52.0293 269.604 51.2373 268.818 51.0423C268.029 50.8503 267.234 51.3303 267.042 52.1193" fill="#FEFEFE"/>
<path id="Fill 52" fill-rule="evenodd" clip-rule="evenodd" d="M273.173 55.573C272.386 58.7904 274.354 62.0384 277.573 62.8258C280.789 63.6154 284.037 61.6457 284.827 58.4283C285.614 55.2087 283.646 51.963 280.427 51.1733C277.211 50.3859 273.961 52.3556 273.173 55.573" fill="#1A1E1D"/>
<path id="Fill 53" fill-rule="evenodd" clip-rule="evenodd" d="M276.131 57.4291C275.538 59.8428 277.017 62.2777 279.431 62.87C281.842 63.4605 284.277 61.9834 284.869 59.5697C285.462 57.156 283.983 54.7211 281.571 54.1307C279.158 53.5383 276.723 55.0154 276.131 57.4291" fill="#FEFEFE"/>
<path id="Fill 54" fill-rule="evenodd" clip-rule="evenodd" d="M281.914 57.7144C281.518 59.324 279.897 60.3081 278.284 59.9126C276.678 59.5202 275.694 57.8952 276.086 56.2856C276.482 54.676 278.106 53.6919 279.713 54.0874C281.322 54.4798 282.306 56.1048 281.914 57.7144" fill="#1A1E1D"/>
<path id="Fill 55" fill-rule="evenodd" clip-rule="evenodd" d="M278.893 55.8163C278.701 56.6023 277.906 57.0853 277.117 56.8933C276.331 56.6983 275.848 55.9063 276.043 55.1173C276.235 54.3313 277.03 53.8483 277.816 54.0433C278.602 54.2353 279.085 55.0303 278.893 55.8163" fill="#FEFEFE"/>
<path id="Fill 56" fill-rule="evenodd" clip-rule="evenodd" d="M270.913 68.924C270.82 68.9123 270.73 68.8967 270.637 68.883C269.079 68.6195 267.739 67.9481 267.133 67.1342C266.885 66.7946 266.994 66.3417 267.374 66.1192C267.757 65.8987 268.272 65.9924 268.524 66.332C268.812 66.7184 269.69 67.2318 270.948 67.4445C271.762 67.5909 273.313 67.6827 274.693 66.8238C275.067 66.5916 275.582 66.6697 275.848 67.0015C276.113 67.3313 276.022 67.7881 275.646 68.0223C274.324 68.842 272.649 69.1602 270.913 68.924" fill="#1A1E1D"/>
<path id="Fill 57" fill-rule="evenodd" clip-rule="evenodd" d="M173.795 382.151C173.17 380.154 170.45 377.725 164.582 379.712C160.378 381.134 153.631 385.139 150.364 388.031C152.059 383.831 153.745 375.685 153.745 371.055C153.745 364.637 150.498 363 148.482 363C146.47 363 143.41 364.949 143.41 371.367C143.41 375.976 144.986 383.896 146.615 388.025C143.306 385.048 136.388 380.859 132.159 379.427C126.291 377.445 123.799 380.154 123.173 382.151C122.553 384.143 123.385 387.778 129.248 389.759C133.452 391.186 141.171 392.074 145.452 391.729C141.708 394.093 135.747 399.649 133.131 403.391C129.512 408.587 131.213 411.898 132.841 413.131C134.475 414.364 138.048 414.666 141.672 409.47C144.268 405.744 147.468 398.373 148.482 394.028C149.479 398.465 152.711 406.089 155.322 409.836C158.946 415.026 162.493 414.364 164.127 413.131C165.755 411.898 167.131 408.452 163.512 403.257C160.911 399.536 155.162 394.088 151.511 391.74C155.87 392.128 163.832 391.277 168.061 389.85C173.924 387.869 174.416 384.143 173.795 382.151" fill="url(#paint4_linear_1_327)"/>
<path id="Fill 58" fill-rule="evenodd" clip-rule="evenodd" d="M209.998 241.911C210.045 240.848 209.095 239.184 205.729 239.053C203.318 238.957 199.137 239.63 196.937 240.407C198.571 238.716 200.916 235.14 201.754 232.931C202.925 229.869 201.558 228.487 200.528 228.119C199.498 227.746 197.579 228.115 196.408 231.177C195.57 233.377 194.934 237.448 195.018 239.716C193.866 237.685 191.085 234.417 189.185 232.954C186.54 230.927 184.765 231.764 184.087 232.604C183.403 233.44 183.174 235.326 185.814 237.353C187.705 238.803 191.497 240.648 193.744 241.27C191.399 241.711 187.336 243.265 185.323 244.569C182.518 246.382 182.79 248.277 183.399 249.164C184.007 250.054 185.786 250.854 188.586 249.041C190.589 247.741 193.571 244.81 194.882 242.924C194.582 245.224 194.854 249.459 195.505 251.727C196.418 254.871 198.356 255.207 199.414 254.917C200.472 254.63 201.806 253.24 200.898 250.091C200.242 247.837 198.29 244.183 196.848 242.393C199.011 243.374 203.243 244.438 205.663 244.533C209.029 244.665 209.956 242.974 209.998 241.911" fill="#DFE1EC"/>
<path id="Fill 59" fill-rule="evenodd" clip-rule="evenodd" d="M500.031 129.343C499.024 128.7 496.911 128.678 494.988 131.834C493.605 134.097 492.017 138.497 491.594 141.05C490.833 138.527 488.63 134.254 486.948 132.199C484.612 129.346 482.552 129.883 481.641 130.664C480.732 131.443 480.06 133.496 482.393 136.349C484.07 138.391 487.662 141.3 489.902 142.499C487.324 142.464 482.676 143.288 480.247 144.294C476.878 145.687 476.738 147.862 477.182 148.989C477.629 150.114 479.323 151.406 482.694 150.01C485.108 149.01 488.921 146.407 490.724 144.599C489.894 147.099 489.224 151.882 489.406 154.557C489.66 158.271 491.635 159.079 492.819 158.994C494.002 158.909 495.725 157.654 495.471 153.942C495.289 151.278 494.049 146.764 492.928 144.445C494.993 146.027 499.224 148.157 501.767 148.806C505.291 149.707 506.651 148.032 506.939 146.854C507.225 145.673 506.592 143.608 503.067 142.706C500.54 142.063 495.967 141.874 493.465 142.249C495.572 140.728 498.858 137.264 500.246 134.988C502.169 131.832 501.038 129.986 500.031 129.343" fill="#DFE1EC"/>
<path id="Fill 94" fill-rule="evenodd" clip-rule="evenodd" d="M675.127 84.7862C667.32 81.8425 660.991 76.9647 657.137 70.9196L654 66L651.518 70.1729C647.649 76.6776 640.952 81.9139 632.606 84.9547L627 87.0007L632.786 89.2623C639.744 91.9823 645.501 96.2549 649.321 101.534L654 108L657.594 102.712C661.175 97.4478 666.663 93.1145 673.378 90.2503L681 87.0007L675.127 84.7862Z" fill="#E8E9EB"/>
<path id="Fill 95" fill-rule="evenodd" clip-rule="evenodd" d="M697.042 50.3675C694.44 49.5267 692.329 48.132 691.046 46.4046L690 45L689.173 46.192C687.884 48.0504 685.651 49.5465 682.869 50.4158L681 51.0006L682.929 51.6461C685.249 52.4238 687.168 53.6442 688.44 55.1527L690 57L691.198 55.4903C692.39 53.9855 694.221 52.7465 696.459 51.9292L699 51.0006L697.042 50.3675Z" fill="#E8E9EB"/>
<path id="Fill 96" fill-rule="evenodd" clip-rule="evenodd" d="M634.042 65.3675C631.44 64.5267 629.329 63.1332 628.046 61.4059L627 60L626.173 61.192C624.884 63.0504 622.651 64.5465 619.869 65.4158L618 66.0006L619.931 66.6473C622.249 67.4238 624.168 68.6442 625.44 70.1527L627 72L628.198 70.4903C629.392 68.9855 631.221 67.7465 633.459 66.9292L636 66.0006L634.042 65.3675Z" fill="#E8E9EB"/>
<path id="Stroke 97" d="M639.717 112.147C604.049 134.134 618.941 161.825 636.208 173.559" stroke="#E8E9EB"/>
</g>
</g>
<defs>
<linearGradient id="paint0_linear_1_327" x1="571.5" y1="283.5" x2="544.5" y2="310.5" gradientUnits="userSpaceOnUse">
<stop stop-color="#151B59"/>
<stop offset="1" stop-color="#151DB6"/>
</linearGradient>
<linearGradient id="paint1_linear_1_327" x1="606" y1="169.5" x2="508.321" y2="252.379" gradientUnits="userSpaceOnUse">
<stop stop-color="#151B59"/>
<stop offset="1" stop-color="#151DB6"/>
</linearGradient>
<linearGradient id="paint2_linear_1_327" x1="798" y1="93" x2="743.744" y2="196.58" gradientUnits="userSpaceOnUse">
<stop stop-color="#151B59"/>
<stop offset="1" stop-color="#151DB6"/>
</linearGradient>
<linearGradient id="paint3_linear_1_327" x1="255" y1="340.5" x2="150.044" y2="442.457" gradientUnits="userSpaceOnUse">
<stop stop-color="#151B59"/>
<stop offset="1" stop-color="#151DB6"/>
</linearGradient>
<linearGradient id="paint4_linear_1_327" x1="148.5" y1="337.5" x2="97.5" y2="388.5" gradientUnits="userSpaceOnUse">
<stop stop-color="#151B59"/>
<stop offset="1" stop-color="#151DB6"/>
</linearGradient>
</defs>
</svg>
