<svg width="128" height="128" viewBox="0 0 128 128" fill="none" xmlns="http://www.w3.org/2000/svg">
<ellipse cx="18.9793" cy="66.5643" rx="18.9793" ry="18.7357" fill="#95D5D5" fill-opacity="0.6"/>
<ellipse cx="106.814" cy="12.9714" rx="7.06207" ry="6.97143" fill="#95D5D5" fill-opacity="0.6"/>
<ellipse cx="109.021" cy="56.9786" rx="9.26897" ry="9.15" fill="#95D5D5" fill-opacity="0.6"/>
<ellipse cx="123.145" cy="31.7071" rx="4.85517" ry="4.79286" fill="#95D5D5" fill-opacity="0.6"/>
<ellipse cx="73.7103" cy="31.7071" rx="18.9793" ry="18.7357" fill="#95D5D5" fill-opacity="0.6"/>
<ellipse cx="40.6069" cy="114.057" rx="14.1241" ry="13.9429" fill="#95D5D5" fill-opacity="0.6"/>
<ellipse cx="89.6" cy="97.0643" rx="11.0345" ry="10.8929" fill="#95D5D5" fill-opacity="0.6"/>
<ellipse cx="30.0138" cy="16.4571" rx="10.5931" ry="10.4571" fill="#95D5D5" fill-opacity="0.6"/>
<path d="M115.023 53.4316C115.023 57.3828 114.559 61.5 113.629 65.7832C112.699 70.0664 111.388 74.25 109.694 78.334C108.034 82.3848 106.025 86.2197 103.668 89.8389C101.311 93.458 98.6875 96.5957 95.7988 99.252L89.4736 95.8154C90.4365 94.0889 91.3164 92.1465 92.1133 89.9883C92.9102 87.8301 93.6406 85.5557 94.3047 83.165C94.9688 80.7744 95.5498 78.3174 96.0479 75.7939C96.5459 73.2705 96.9609 70.7637 97.293 68.2734C97.6582 65.75 97.9238 63.3096 98.0898 60.9521C98.2559 58.5947 98.3389 56.3867 98.3389 54.3281C98.3389 53.166 98.3057 51.9043 98.2393 50.543C98.1729 49.1816 98.0234 47.8203 97.791 46.459C97.5918 45.0977 97.2764 43.8027 96.8447 42.5742C96.4131 41.3125 95.8154 40.2002 95.0518 39.2373C94.3213 38.2412 93.3916 37.4609 92.2627 36.8965C91.167 36.2988 89.8389 36 88.2783 36C86.751 36 85.4395 36.415 84.3438 37.2451C83.2812 38.042 82.3682 39.0879 81.6045 40.3828C80.8408 41.6777 80.2266 43.1387 79.7617 44.7656C79.3301 46.3926 78.998 48.0361 78.7656 49.6963C78.5332 51.3232 78.3672 52.8838 78.2676 54.3779C78.2012 55.8721 78.168 57.1338 78.168 58.1631V87H61.3838V60.2051C61.3838 59.043 61.4004 57.6484 61.4336 56.0215C61.4668 54.3613 61.417 52.6348 61.2842 50.8418C61.1846 49.0488 60.9688 47.2725 60.6367 45.5127C60.3379 43.7197 59.8398 42.126 59.1426 40.7314C58.4785 39.3369 57.5654 38.208 56.4033 37.3447C55.2412 36.4482 53.7803 36 52.0205 36C50.5264 36 49.2646 36.415 48.2354 37.2451C47.2393 38.0752 46.3926 39.1543 45.6953 40.4824C45.0312 41.7773 44.5 43.2549 44.1016 44.915C43.7363 46.542 43.4541 48.1855 43.2549 49.8457C43.0889 51.4727 42.9893 53.0332 42.9561 54.5273C42.9229 55.9883 42.9062 57.2002 42.9062 58.1631V87H26.0225V29.4756H32.4971L38.6729 42.873C40.0674 38.2246 42.2588 34.6055 45.2471 32.0156C48.2686 29.3926 52.2695 28.0811 57.25 28.0811C61.7324 28.0811 65.4512 29.0107 68.4062 30.8701C71.3613 32.7295 73.6855 35.751 75.3789 39.9346C76.3418 38.1084 77.4043 36.4648 78.5664 35.0039C79.7617 33.543 81.0732 32.2979 82.501 31.2686C83.9619 30.2393 85.5723 29.459 87.332 28.9277C89.0918 28.3633 91.0342 28.0811 93.1592 28.0811C97.0771 28.0811 100.414 28.7285 103.17 30.0234C105.959 31.2852 108.233 33.0449 109.993 35.3027C111.753 37.5605 113.031 40.25 113.828 43.3711C114.625 46.459 115.023 49.8125 115.023 53.4316Z" fill="#151B58"/>
</svg>
